<svg xmlns="http://www.w3.org/2000/svg" width="90" height="90" viewBox="0 0 90 90">
  <g id="FA_icon" data-name="FA icon" transform="translate(-372 -1031)">
    <g id="Ellipse_1" data-name="Ellipse 1" transform="translate(372 1031)" fill="#c0301c" stroke="#ddd" stroke-width="2">
      <circle cx="45" cy="45" r="45" stroke="none"/>
      <circle cx="45" cy="45" r="44" fill="none"/>
    </g>
    <path id="fa-font" d="M414.735,1067.223a102.723,102.723,0,0,1,4.755,11.771c-.491.026-.982.052-1.473.052-2.558,0-5.117-.078-7.675-.1ZM396,1096a27.769,27.769,0,0,0,4.858-.365,10.269,10.269,0,0,1,1.24-.208c3,0,6.021.521,9.019.521a6.429,6.429,0,0,0,.052-.7c0-.521,0-1.016-.026-1.51-1.473-.208-5.272-.287-5.272-2.291,0-.99,2.61-7.812,3.282-9.323l11.629.052c.413,1.068,3.747,8.8,3.747,9.739,0,.964-1.37,1.146-2.067,1.3l-3.385.729a17.8,17.8,0,0,0-.1,2.031c3.385-.1,6.771-.391,10.156-.391,3.282,0,6.564.417,9.845.417,0-.234.026-.443.026-.677a9.653,9.653,0,0,0-.155-1.484c-1.215-.469-3.592-.625-4.445-1.3a4.571,4.571,0,0,1-.9-1.484c-1.292-2.656-2.2-5.443-3.359-8.151-1.964-4.583-3.747-9.245-5.685-13.854l-5.3-12.5a5.581,5.581,0,0,0-.284-.547h-3.308l-7.236,18.854L402.2,1090.9c-1.085,2.813-3.721,2.292-6.15,3.047Z" fill="#fff"/>
  </g>
</svg>
