<svg xmlns="http://www.w3.org/2000/svg" width="90" height="90" viewBox="0 0 90 90">
  <g id="FA_icon" data-name="FA icon" transform="translate(-762 -1031)">
    <g id="Ellipse_1" data-name="Ellipse 1" transform="translate(762 1031)" fill="#fff" stroke="#ddd" stroke-width="2">
      <circle cx="45" cy="45" r="45" stroke="none"/>
      <circle cx="45" cy="45" r="44" fill="none"/>
    </g>
    <path id="fa-code" d="M797.6,1088.724a.931.931,0,0,0,0-1.334L786.254,1076l11.345-11.391a.93.93,0,0,0,0-1.333l-1.443-1.449a.922.922,0,0,0-1.328,0l-13.452,13.507a.93.93,0,0,0,0,1.333l13.452,13.508a.921.921,0,0,0,1.328,0Zm17.06-30.927a.94.94,0,0,0-.635-1.159l-1.79-.493a.917.917,0,0,0-1.126.638l-10.767,37.42a.941.941,0,0,0,.635,1.159l1.79.492a.917.917,0,0,0,1.126-.637Zm18.966,18.869a.93.93,0,0,0,0-1.333l-13.452-13.507a.922.922,0,0,0-1.328,0l-1.443,1.449a.93.93,0,0,0,0,1.333L828.746,1076,817.4,1087.391a.931.931,0,0,0,0,1.334l1.443,1.449a.921.921,0,0,0,1.328,0Z" fill="#c0301c"/>
  </g>
</svg>
