<svg xmlns="http://www.w3.org/2000/svg" width="90" height="90" viewBox="0 0 90 90">
  <g id="FA_icon" data-name="FA icon" transform="translate(-1152 -1031)">
    <g id="Ellipse_1" data-name="Ellipse 1" transform="translate(1152 1031)" fill="#fff" stroke="#ddd" stroke-width="2">
      <circle cx="45" cy="45" r="45" stroke="none"/>
      <circle cx="45" cy="45" r="44" fill="none"/>
    </g>
    <path id="fa-support" d="M1196.994,1051.866a23.994,23.994,0,1,0,23.994,23.995A23.989,23.989,0,0,0,1196.994,1051.866Zm0,3.428a20.676,20.676,0,0,1,9.667,2.41l-5.2,5.195a13.708,13.708,0,0,0-8.944,0l-5.2-5.195A20.676,20.676,0,0,1,1196.994,1055.295Zm-18.156,30.234a20.594,20.594,0,0,1,0-19.335l5.2,5.2a13.711,13.711,0,0,0,0,8.944Zm18.156,10.9a20.677,20.677,0,0,1-9.667-2.41l5.2-5.2a13.708,13.708,0,0,0,8.944,0l5.2,5.2A20.677,20.677,0,0,1,1196.994,1096.427Zm0-10.283a10.283,10.283,0,1,1,10.283-10.283A10.286,10.286,0,0,1,1196.994,1086.144Zm12.961-5.811a13.713,13.713,0,0,0,0-8.944l5.2-5.2a20.593,20.593,0,0,1,0,19.335Z" fill="#c0301c"/>
  </g>
</svg>
