<svg xmlns="http://www.w3.org/2000/svg" width="35" height="35" viewBox="0 0 35 35">
  <g id="Group_5" data-name="Group 5" transform="translate(-709 -6266)">
    <g id="Ellipse_3" data-name="Ellipse 3" transform="translate(709 6266)" fill="none" stroke="#fff" stroke-width="2">
      <circle cx="17.5" cy="17.5" r="17.5" stroke="none"/>
      <circle cx="17.5" cy="17.5" r="16.5" fill="none"/>
    </g>
    <path id="fa-twitter" d="M735,6278.425a7.018,7.018,0,0,1-1.888.468,3.075,3.075,0,0,0,1.442-1.668,6.8,6.8,0,0,1-2.081.731,3.4,3.4,0,0,0-2.4-.957,3.034,3.034,0,0,0-3.2,3.722,9.594,9.594,0,0,1-6.761-3.169,2.836,2.836,0,0,0-.447,1.529,2.974,2.974,0,0,0,1.462,2.522,3.522,3.522,0,0,1-1.482-.385v.038a3.1,3.1,0,0,0,2.629,2.972,3.777,3.777,0,0,1-.863.1,4.513,4.513,0,0,1-.619-.047,3.264,3.264,0,0,0,3.066,2.1,6.919,6.919,0,0,1-4.071,1.294,7.541,7.541,0,0,1-.792-.037,9.834,9.834,0,0,0,5.036,1.359,8.908,8.908,0,0,0,9.33-8.616c0-.131,0-.262-.01-.394A6.775,6.775,0,0,0,735,6278.425Z" fill="#fff"/>
  </g>
</svg>
