<svg xmlns="http://www.w3.org/2000/svg" width="15" height="11" viewBox="0 0 15 11">
  <path id="fa-envelope-o" d="M242.928,5977.75a.267.267,0,0,1-.268.25H230.339a.267.267,0,0,1-.268-.25v-6a4.421,4.421,0,0,0,.578.516c1.2.859,2.4,1.734,3.566,2.64a3.978,3.978,0,0,0,2.277,1.094h.017a3.978,3.978,0,0,0,2.277-1.094c1.164-.906,2.369-1.781,3.566-2.64a4.433,4.433,0,0,0,.577-.516Zm0-8.211a3.013,3.013,0,0,1-1.23,1.93q-1.683,1.23-3.357,2.477c-.443.336-1.247,1.055-1.833,1.055h-.017c-.586,0-1.389-.719-1.833-1.055q-1.67-1.241-3.357-2.477a2.764,2.764,0,0,1-1.23-2.219.266.266,0,0,1,.268-.25h12.322C242.979,5969,242.928,5969.343,242.928,5969.539Zm1.072-.289a1.3,1.3,0,0,0-1.339-1.25H230.339a1.3,1.3,0,0,0-1.339,1.25v8.5a1.3,1.3,0,0,0,1.339,1.25h12.322a1.3,1.3,0,0,0,1.339-1.25Z" transform="translate(-229 -5968)" fill="#555"/>
</svg>
