<svg xmlns="http://www.w3.org/2000/svg" width="12" height="20" viewBox="0 0 12 20">
  <path id="fa-mobile-phone" d="M236.25,5885a1.25,1.25,0,1,1-1.25-1.25A1.254,1.254,0,0,1,236.25,5885Zm3.25-2.5a.514.514,0,0,1-.5.5h-8a.514.514,0,0,1-.5-.5v-11a.514.514,0,0,1,.5-.5h8a.514.514,0,0,1,.5.5Zm-3-13.25a.247.247,0,0,1-.25.25h-2.5a.25.25,0,1,1,0-.5h2.5A.247.247,0,0,1,236.5,5869.25Zm4.5-.25a2.014,2.014,0,0,0-2-2h-8a2.014,2.014,0,0,0-2,2v16a2.014,2.014,0,0,0,2,2h8a2.014,2.014,0,0,0,2-2Z" transform="translate(-229 -5867)" fill="#555"/>
</svg>
